<svg xmlns="http://www.w3.org/2000/svg" width="1050" height="3840"><path d="M629,2092L487,2124L482,2305Z" fill="#ffffff" stroke="#ffffff" stroke-width="1.51"/><path d="M482,2305L740,2362L629,2092Z" fill="#ffffff" stroke="#ffffff" stroke-width="1.51"/><path d="M482,2305L575,2437L740,2362Z" fill="#ffffff" stroke="#ffffff" stroke-width="1.51"/><path d="M482,2305L400,2527L575,2437Z" fill="#ffffff" stroke="#ffffff" stroke-width="1.51"/><path d="M575,2437L869,2469L740,2362Z" fill="#fbfbfb" stroke="#fbfbfb" stroke-width="1.51"/><path d="M205,2457L400,2527L482,2305Z" fill="#ffffff" stroke="#ffffff" stroke-width="1.51"/><path d="M981,2167L892,1994L629,2092Z" fill="#ededed" stroke="#ededed" stroke-width="1.51"/><path d="M787,2702L869,2469L575,2437Z" fill="#f9f9f9" stroke="#f9f9f9" stroke-width="1.51"/><path d="M981,2167L629,2092L740,2362Z" fill="#f4f4f4" stroke="#f4f4f4" stroke-width="1.51"/><path d="M124,1889L188,2098L487,2124Z" fill="#f4f4f4" stroke="#f4f4f4" stroke-width="1.51"/><path d="M1035,2340L981,2167L740,2362Z" fill="#e8e8e8" stroke="#e8e8e8" stroke-width="1.51"/><path d="M487,2124L169,2210L482,2305Z" fill="#ffffff" stroke="#ffffff" stroke-width="1.51"/><path d="M493,1737L487,2124L629,2092Z" fill="#ffffff" stroke="#ffffff" stroke-width="1.51"/><path d="M188,2098L169,2210L487,2124Z" fill="#f6f6f6" stroke="#f6f6f6" stroke-width="1.51"/><path d="M169,2210L205,2457L482,2305Z" fill="#f6f6f6" stroke="#f6f6f6" stroke-width="1.51"/><path d="M892,1994L654,1764L629,2092Z" fill="#fbfbfb" stroke="#fbfbfb" stroke-width="1.51"/><path d="M869,2469L1035,2340L740,2362Z" fill="#e8e8e8" stroke="#e8e8e8" stroke-width="1.51"/><path d="M654,1764L493,1737L629,2092Z" fill="#ffffff" stroke="#ffffff" stroke-width="1.51"/><path d="M869,2469L1120,2424L1035,2340Z" fill="#e8e8e8" stroke="#e8e8e8" stroke-width="1.51"/><path d="M400,2527L787,2702L575,2437Z" fill="#ffffff" stroke="#ffffff" stroke-width="1.51"/><path d="M749,2787L787,2702L400,2527Z" fill="#fbfbfb" stroke="#fbfbfb" stroke-width="1.51"/><path d="M654,1764L580,1671L493,1737Z" fill="#ffffff" stroke="#ffffff" stroke-width="1.51"/><path d="M756,1529L580,1671L654,1764Z" fill="#ffffff" stroke="#ffffff" stroke-width="1.51"/><path d="M892,1994L946,1776L654,1764Z" fill="#eeeeee" stroke="#eeeeee" stroke-width="1.51"/><path d="M981,2167L1058,1933L892,1994Z" fill="#e8e8e8" stroke="#e8e8e8" stroke-width="1.51"/><path d="M1141,1882L1058,1933L1407,2124Z" fill="#e8e8e8" stroke="#e8e8e8" stroke-width="1.51"/><path d="M493,1737L124,1889L487,2124Z" fill="#ffffff" stroke="#ffffff" stroke-width="1.51"/><path d="M188,2098L-31,2051L169,2210Z" fill="#e8e8e8" stroke="#e8e8e8" stroke-width="1.51"/><path d="M396,1649L124,1889L493,1737Z" fill="#fdfdfd" stroke="#fdfdfd" stroke-width="1.51"/><path d="M1058,1933L946,1776L892,1994Z" fill="#e8e8e8" stroke="#e8e8e8" stroke-width="1.51"/><path d="M1035,2340L1407,2124L981,2167Z" fill="#e8e8e8" stroke="#e8e8e8" stroke-width="1.51"/><path d="M1207,2766L1120,2424L869,2469Z" fill="#e8e8e8" stroke="#e8e8e8" stroke-width="1.51"/><path d="M381,2801L749,2787L400,2527Z" fill="#fafafa" stroke="#fafafa" stroke-width="1.51"/><path d="M787,2702L1207,2766L869,2469Z" fill="#e5e5e5" stroke="#e5e5e5" stroke-width="1.51"/><path d="M580,1671L396,1649L493,1737Z" fill="#ffffff" stroke="#ffffff" stroke-width="1.51"/><path d="M134,2720L381,2801L400,2527Z" fill="#f4f4f4" stroke="#f4f4f4" stroke-width="1.51"/><path d="M169,2210L-41,2351L205,2457Z" fill="#e8e8e8" stroke="#e8e8e8" stroke-width="1.51"/><path d="M205,2457L134,2720L400,2527Z" fill="#f1f1f1" stroke="#f1f1f1" stroke-width="1.51"/><path d="M124,1889L-31,2051L188,2098Z" fill="#e8e8e8" stroke="#e8e8e8" stroke-width="1.51"/><path d="M-31,2051L-41,2351L169,2210Z" fill="#e8e8e8" stroke="#e8e8e8" stroke-width="1.51"/><path d="M1058,1933L1141,1882L946,1776Z" fill="#e8e8e8" stroke="#e8e8e8" stroke-width="1.51"/><path d="M1407,2124L1058,1933L981,2167Z" fill="#e8e8e8" stroke="#e8e8e8" stroke-width="1.51"/><path d="M-66,2612L134,2720L205,2457Z" fill="#e7e7e7" stroke="#e7e7e7" stroke-width="1.51"/><path d="M124,1889L58,1769L-31,2051Z" fill="#e8e8e8" stroke="#e8e8e8" stroke-width="1.51"/><path d="M396,1649L58,1769L124,1889Z" fill="#eaeaea" stroke="#eaeaea" stroke-width="1.51"/><path d="M367,1342L269,1485L396,1649Z" fill="#fefefe" stroke="#fefefe" stroke-width="1.51"/><path d="M946,1776L756,1529L654,1764Z" fill="#f4f4f4" stroke="#f4f4f4" stroke-width="1.51"/><path d="M1034,1566L756,1529L946,1776Z" fill="#e8e8e8" stroke="#e8e8e8" stroke-width="1.51"/><path d="M-158,2452L-66,2612L-41,2351Z" fill="#e8e8e8" stroke="#e8e8e8" stroke-width="1.51"/><path d="M-41,2351L-66,2612L205,2457Z" fill="#e8e8e8" stroke="#e8e8e8" stroke-width="1.51"/><path d="M-294,2357L-158,2452L-41,2351Z" fill="#e8e8e8" stroke="#e8e8e8" stroke-width="1.51"/><path d="M-271,2113L-41,2351L-31,2051Z" fill="#e8e8e8" stroke="#e8e8e8" stroke-width="1.51"/><path d="M1141,1882L1034,1566L946,1776Z" fill="#e8e8e8" stroke="#e8e8e8" stroke-width="1.51"/><path d="M396,1649L269,1485L58,1769Z" fill="#f1f1f1" stroke="#f1f1f1" stroke-width="1.51"/><path d="M367,1342L396,1649L580,1671Z" fill="#ffffff" stroke="#ffffff" stroke-width="1.51"/><path d="M856,3019L1207,2766L787,2702Z" fill="#dfdfdf" stroke="#dfdfdf" stroke-width="1.51"/><path d="M381,2801L692,3012L749,2787Z" fill="#f4f4f4" stroke="#f4f4f4" stroke-width="1.51"/><path d="M439,3045L692,3012L381,2801Z" fill="#f1f1f1" stroke="#f1f1f1" stroke-width="1.51"/><path d="M1141,1882L1295,1825L1034,1566Z" fill="#e8e8e8" stroke="#e8e8e8" stroke-width="1.51"/><path d="M1407,2124L1295,1825L1141,1882Z" fill="#e8e8e8" stroke="#e8e8e8" stroke-width="1.51"/><path d="M1120,2424L1407,2124L1035,2340Z" fill="#e8e8e8" stroke="#e8e8e8" stroke-width="1.51"/><path d="M1436,2278L1407,2124L1120,2424Z" fill="#e8e8e8" stroke="#e8e8e8" stroke-width="1.51"/><path d="M856,3019L787,2702L749,2787Z" fill="#e8e8e8" stroke="#e8e8e8" stroke-width="1.51"/><path d="M260,3022L439,3045L381,2801Z" fill="#f1f1f1" stroke="#f1f1f1" stroke-width="1.51"/><path d="M260,3022L381,2801L134,2720Z" fill="#e9e9e9" stroke="#e9e9e9" stroke-width="1.51"/><path d="M-66,2612L16,2844L134,2720Z" fill="#e2e2e2" stroke="#e2e2e2" stroke-width="1.51"/><path d="M-275,2674L16,2844L-66,2612Z" fill="#e3e3e3" stroke="#e3e3e3" stroke-width="1.51"/><path d="M684,3123L856,3019L692,3012Z" fill="#e8e8e8" stroke="#e8e8e8" stroke-width="1.51"/><path d="M692,3012L856,3019L749,2787Z" fill="#e9e9e9" stroke="#e9e9e9" stroke-width="1.51"/><path d="M1446,2417L1436,2278L1120,2424Z" fill="#e8e8e8" stroke="#e8e8e8" stroke-width="1.51"/><path d="M-310,1883L-271,2113L-31,2051Z" fill="#e8e8e8" stroke="#e8e8e8" stroke-width="1.51"/><path d="M-310,1883L-31,2051L58,1769Z" fill="#e8e8e8" stroke="#e8e8e8" stroke-width="1.51"/><path d="M16,2844L260,3022L134,2720Z" fill="#dedede" stroke="#dedede" stroke-width="1.51"/><path d="M260,3022L459,3086L439,3045Z" fill="#ededed" stroke="#ededed" stroke-width="1.51"/><path d="M439,3045L459,3086L692,3012Z" fill="#eeeeee" stroke="#eeeeee" stroke-width="1.51"/><path d="M1207,2766L1446,2417L1120,2424Z" fill="#e8e8e8" stroke="#e8e8e8" stroke-width="1.51"/><path d="M-158,2452L-275,2674L-66,2612Z" fill="#e8e8e8" stroke="#e8e8e8" stroke-width="1.51"/><path d="M-271,2113L-294,2357L-41,2351Z" fill="#e8e8e8" stroke="#e8e8e8" stroke-width="1.51"/><path d="M269,1485L-26,1508L58,1769Z" fill="#e8e8e8" stroke="#e8e8e8" stroke-width="1.51"/><path d="M721,1324L367,1342L580,1671Z" fill="#ffffff" stroke="#ffffff" stroke-width="1.51"/><path d="M721,1324L580,1671L756,1529Z" fill="#ffffff" stroke="#ffffff" stroke-width="1.51"/><path d="M939,1278L721,1324L756,1529Z" fill="#f1f1f1" stroke="#f1f1f1" stroke-width="1.51"/><path d="M459,3086L684,3123L692,3012Z" fill="#ededed" stroke="#ededed" stroke-width="1.51"/><path d="M68,1312L-26,1508L269,1485Z" fill="#e8e8e8" stroke="#e8e8e8" stroke-width="1.51"/><path d="M1034,1566L939,1278L756,1529Z" fill="#e8e8e8" stroke="#e8e8e8" stroke-width="1.51"/><path d="M1285,1516L1142,1449L1034,1566Z" fill="#e8e8e8" stroke="#e8e8e8" stroke-width="1.51"/><path d="M-271,2113L-358,2466L-294,2357Z" fill="#e8e8e8" stroke="#e8e8e8" stroke-width="1.51"/><path d="M-182,1481L-310,1883L58,1769Z" fill="#e8e8e8" stroke="#e8e8e8" stroke-width="1.51"/><path d="M16,2844L65,3198L260,3022Z" fill="#d8d8d8" stroke="#d8d8d8" stroke-width="1.51"/><path d="M-358,2466L-275,2674L-158,2452Z" fill="#e8e8e8" stroke="#e8e8e8" stroke-width="1.51"/><path d="M-294,2357L-358,2466L-158,2452Z" fill="#e8e8e8" stroke="#e8e8e8" stroke-width="1.51"/><path d="M-310,1883L-358,2466L-271,2113Z" fill="#e8e8e8" stroke="#e8e8e8" stroke-width="1.51"/><path d="M1418,1444L1285,1516L1295,1825Z" fill="#e8e8e8" stroke="#e8e8e8" stroke-width="1.51"/><path d="M1295,1825L1285,1516L1034,1566Z" fill="#e8e8e8" stroke="#e8e8e8" stroke-width="1.51"/><path d="M1207,2766L1392,2820L1446,2417Z" fill="#e4e4e4" stroke="#e4e4e4" stroke-width="1.51"/><path d="M856,3019L1215,2985L1207,2766Z" fill="#dbdbdb" stroke="#dbdbdb" stroke-width="1.51"/><path d="M1033,3121L1215,2985L856,3019Z" fill="#d7d7d7" stroke="#d7d7d7" stroke-width="1.51"/><path d="M967,1025L939,1278L1025,1013Z" fill="#e2e2e2" stroke="#e2e2e2" stroke-width="1.51"/><path d="M1142,1449L939,1278L1034,1566Z" fill="#e8e8e8" stroke="#e8e8e8" stroke-width="1.51"/><path d="M721,1324L454,1207L367,1342Z" fill="#ffffff" stroke="#ffffff" stroke-width="1.51"/><path d="M1215,2985L1392,2820L1207,2766Z" fill="#dedede" stroke="#dedede" stroke-width="1.51"/><path d="M851,3295L1033,3121L856,3019Z" fill="#d4d4d4" stroke="#d4d4d4" stroke-width="1.51"/><path d="M367,1342L68,1312L269,1485Z" fill="#f0f0f0" stroke="#f0f0f0" stroke-width="1.51"/><path d="M686,1098L454,1207L721,1324Z" fill="#fcfcfc" stroke="#fcfcfc" stroke-width="1.51"/><path d="M151,1029L68,1312L367,1342Z" fill="#e9e9e9" stroke="#e9e9e9" stroke-width="1.51"/><path d="M-26,1508L-182,1481L58,1769Z" fill="#e8e8e8" stroke="#e8e8e8" stroke-width="1.51"/><path d="M-101,1375L-182,1481L-26,1508Z" fill="#e8e8e8" stroke="#e8e8e8" stroke-width="1.51"/><path d="M1358,3157L1364,2966L1215,2985Z" fill="#d7d7d7" stroke="#d7d7d7" stroke-width="1.51"/><path d="M1215,2985L1364,2966L1392,2820Z" fill="#dbdbdb" stroke="#dbdbdb" stroke-width="1.51"/><path d="M68,1312L-101,1375L-26,1508Z" fill="#e8e8e8" stroke="#e8e8e8" stroke-width="1.51"/><path d="M-275,2674L-170,3004L16,2844Z" fill="#dedede" stroke="#dedede" stroke-width="1.51"/><path d="M260,3022L473,3311L459,3086Z" fill="#eaeaea" stroke="#eaeaea" stroke-width="1.51"/><path d="M459,3086L473,3311L684,3123Z" fill="#e9e9e9" stroke="#e9e9e9" stroke-width="1.51"/><path d="M-172,3251L-170,3004L-199,3371Z" fill="#d2d2d2" stroke="#d2d2d2" stroke-width="1.51"/><path d="M65,3198L473,3311L260,3022Z" fill="#dedede" stroke="#dedede" stroke-width="1.51"/><path d="M684,3123L851,3295L856,3019Z" fill="#dedede" stroke="#dedede" stroke-width="1.51"/><path d="M-107,3153L65,3198L16,2844Z" fill="#d6d6d6" stroke="#d6d6d6" stroke-width="1.51"/><path d="M473,3311L851,3295L684,3123Z" fill="#e8e8e8" stroke="#e8e8e8" stroke-width="1.51"/><path d="M1033,3121L1358,3157L1215,2985Z" fill="#d6d6d6" stroke="#d6d6d6" stroke-width="1.51"/><path d="M939,1278L686,1098L721,1324Z" fill="#f3f3f3" stroke="#f3f3f3" stroke-width="1.51"/><path d="M151,1029L-62,1146L68,1312Z" fill="#e4e4e4" stroke="#e4e4e4" stroke-width="1.51"/><path d="M967,1025L686,1098L939,1278Z" fill="#e5e5e5" stroke="#e5e5e5" stroke-width="1.51"/><path d="M1285,1516L1328,1204L1142,1449Z" fill="#e8e8e8" stroke="#e8e8e8" stroke-width="1.51"/><path d="M1407,2124L1418,1444L1295,1825Z" fill="#e8e8e8" stroke="#e8e8e8" stroke-width="1.51"/><path d="M1436,2278L1418,1444L1407,2124Z" fill="#e8e8e8" stroke="#e8e8e8" stroke-width="1.51"/><path d="M1446,2417L1418,1444L1436,2278Z" fill="#e8e8e8" stroke="#e8e8e8" stroke-width="1.51"/><path d="M-170,3004L-107,3153L16,2844Z" fill="#d9d9d9" stroke="#d9d9d9" stroke-width="1.51"/><path d="M413,3671L561,3493L473,3311Z" fill="#e8e8e8" stroke="#e8e8e8" stroke-width="1.51"/><path d="M1143,3479L1358,3157L1033,3121Z" fill="#d2d2d2" stroke="#d2d2d2" stroke-width="1.51"/><path d="M1364,2966L1358,3157L1392,2820Z" fill="#d9d9d9" stroke="#d9d9d9" stroke-width="1.51"/><path d="M1392,2820L1436,3577L1446,2417Z" fill="#dbdbdb" stroke="#dbdbdb" stroke-width="1.51"/><path d="M68,1312L-62,1146L-101,1375Z" fill="#e8e8e8" stroke="#e8e8e8" stroke-width="1.51"/><path d="M-101,1375L-396,1369L-182,1481Z" fill="#e8e8e8" stroke="#e8e8e8" stroke-width="1.51"/><path d="M151,1029L367,1342L454,1207Z" fill="#f8f8f8" stroke="#f8f8f8" stroke-width="1.51"/><path d="M1328,1204L939,1278L1142,1449Z" fill="#e8e8e8" stroke="#e8e8e8" stroke-width="1.51"/><path d="M437,940L151,1029L454,1207Z" fill="#f6f6f6" stroke="#f6f6f6" stroke-width="1.51"/><path d="M1418,1444L1328,1204L1285,1516Z" fill="#e8e8e8" stroke="#e8e8e8" stroke-width="1.51"/><path d="M437,940L454,1207L686,1098Z" fill="#f8f8f8" stroke="#f8f8f8" stroke-width="1.51"/><path d="M851,3295L1143,3479L1033,3121Z" fill="#d2d2d2" stroke="#d2d2d2" stroke-width="1.51"/><path d="M473,3311L561,3493L851,3295Z" fill="#e8e8e8" stroke="#e8e8e8" stroke-width="1.51"/><path d="M119,3501L473,3311L65,3198Z" fill="#d7d7d7" stroke="#d7d7d7" stroke-width="1.51"/><path d="M967,1025L828,962L686,1098Z" fill="#e5e5e5" stroke="#e5e5e5" stroke-width="1.51"/><path d="M-107,3153L-172,3251L65,3198Z" fill="#d2d2d2" stroke="#d2d2d2" stroke-width="1.51"/><path d="M-170,3004L-172,3251L-107,3153Z" fill="#d4d4d4" stroke="#d4d4d4" stroke-width="1.51"/><path d="M-199,3371L-170,3004L-275,2674Z" fill="#d8d8d8" stroke="#d8d8d8" stroke-width="1.51"/><path d="M967,1025L992,766L828,962Z" fill="#dbdbdb" stroke="#dbdbdb" stroke-width="1.51"/><path d="M1328,1204L1025,1013L939,1278Z" fill="#e4e4e4" stroke="#e4e4e4" stroke-width="1.51"/><path d="M651,930L437,940L686,1098Z" fill="#f4f4f4" stroke="#f4f4f4" stroke-width="1.51"/><path d="M828,962L651,930L686,1098Z" fill="#f2f2f2" stroke="#f2f2f2" stroke-width="1.51"/><path d="M-368,1157L-396,1369L-101,1375Z" fill="#e8e8e8" stroke="#e8e8e8" stroke-width="1.51"/><path d="M-182,1481L-396,1369L-310,1883Z" fill="#e8e8e8" stroke="#e8e8e8" stroke-width="1.51"/><path d="M-310,1883L-396,1369L-358,2466Z" fill="#e8e8e8" stroke="#e8e8e8" stroke-width="1.51"/><path d="M770,3576L879,3497L851,3295Z" fill="#d7d7d7" stroke="#d7d7d7" stroke-width="1.51"/><path d="M-132,3489L119,3501L65,3198Z" fill="#d2d2d2" stroke="#d2d2d2" stroke-width="1.51"/><path d="M561,3493L770,3576L851,3295Z" fill="#e5e5e5" stroke="#e5e5e5" stroke-width="1.51"/><path d="M602,3759L770,3576L561,3493Z" fill="#e8e8e8" stroke="#e8e8e8" stroke-width="1.51"/><path d="M879,3497L1143,3479L851,3295Z" fill="#d2d2d2" stroke="#d2d2d2" stroke-width="1.51"/><path d="M1186,3742L1143,3479L879,3497Z" fill="#d2d2d2" stroke="#d2d2d2" stroke-width="1.51"/><path d="M1143,3479L1378,3353L1358,3157Z" fill="#d2d2d2" stroke="#d2d2d2" stroke-width="1.51"/><path d="M1358,3157L1378,3353L1392,2820Z" fill="#d5d5d5" stroke="#d5d5d5" stroke-width="1.51"/><path d="M-172,3251L-199,3371L65,3198Z" fill="#d2d2d2" stroke="#d2d2d2" stroke-width="1.51"/><path d="M-253,3593L-199,3371L-275,2674Z" fill="#d2d2d2" stroke="#d2d2d2" stroke-width="1.51"/><path d="M1328,1204L1286,989L1025,1013Z" fill="#e1e1e1" stroke="#e1e1e1" stroke-width="1.51"/><path d="M1025,1013L992,766L967,1025Z" fill="#dcdcdc" stroke="#dcdcdc" stroke-width="1.51"/><path d="M828,962L862,666L651,930Z" fill="#e5e5e5" stroke="#e5e5e5" stroke-width="1.51"/><path d="M1372,614L1286,989L1328,1204Z" fill="#dcdcdc" stroke="#dcdcdc" stroke-width="1.51"/><path d="M-143,972L-62,1146L151,1029Z" fill="#e0e0e0" stroke="#e0e0e0" stroke-width="1.51"/><path d="M-143,972L-368,1157L-62,1146Z" fill="#e2e2e2" stroke="#e2e2e2" stroke-width="1.51"/><path d="M-62,1146L-368,1157L-101,1375Z" fill="#e6e6e6" stroke="#e6e6e6" stroke-width="1.51"/><path d="M83,829L-143,972L151,1029Z" fill="#dcdcdc" stroke="#dcdcdc" stroke-width="1.51"/><path d="M1286,989L1135,882L1025,1013Z" fill="#dddddd" stroke="#dddddd" stroke-width="1.51"/><path d="M91,735L83,829L437,940Z" fill="#dcdcdc" stroke="#dcdcdc" stroke-width="1.51"/><path d="M437,940L83,829L151,1029Z" fill="#e2e2e2" stroke="#e2e2e2" stroke-width="1.51"/><path d="M119,3501L413,3671L473,3311Z" fill="#e6e6e6" stroke="#e6e6e6" stroke-width="1.51"/><path d="M-199,3371L-132,3489L65,3198Z" fill="#d2d2d2" stroke="#d2d2d2" stroke-width="1.51"/><path d="M279,3699L413,3671L119,3501Z" fill="#dedede" stroke="#dedede" stroke-width="1.51"/><path d="M993,3898L1186,3742L879,3497Z" fill="#d2d2d2" stroke="#d2d2d2" stroke-width="1.51"/><path d="M91,735L437,940L306,561Z" fill="#e2e2e2" stroke="#e2e2e2" stroke-width="1.51"/><path d="M1135,882L992,766L1025,1013Z" fill="#dadada" stroke="#dadada" stroke-width="1.51"/><path d="M862,666L992,766L1028,360Z" fill="#d2d2d2" stroke="#d2d2d2" stroke-width="1.51"/><path d="M10,3716L279,3699L119,3501Z" fill="#d2d2d2" stroke="#d2d2d2" stroke-width="1.51"/><path d="M437,3925L602,3759L413,3671Z" fill="#e8e8e8" stroke="#e8e8e8" stroke-width="1.51"/><path d="M413,3671L602,3759L561,3493Z" fill="#e8e8e8" stroke="#e8e8e8" stroke-width="1.51"/><path d="M-124,717L-239,788L-143,972Z" fill="#d8d8d8" stroke="#d8d8d8" stroke-width="1.51"/><path d="M-143,972L-239,788L-368,1157Z" fill="#dddddd" stroke="#dddddd" stroke-width="1.51"/><path d="M557,633L437,940L651,930Z" fill="#efefef" stroke="#efefef" stroke-width="1.51"/><path d="M992,766L862,666L828,962Z" fill="#d7d7d7" stroke="#d7d7d7" stroke-width="1.51"/><path d="M813,537L862,666L1028,360Z" fill="#d2d2d2" stroke="#d2d2d2" stroke-width="1.51"/><path d="M862,666L557,633L651,930Z" fill="#ececec" stroke="#ececec" stroke-width="1.51"/><path d="M279,3699L437,3925L413,3671Z" fill="#e8e8e8" stroke="#e8e8e8" stroke-width="1.51"/><path d="M-132,3489L10,3716L119,3501Z" fill="#d2d2d2" stroke="#d2d2d2" stroke-width="1.51"/><path d="M1143,3479L1436,3577L1378,3353Z" fill="#d2d2d2" stroke="#d2d2d2" stroke-width="1.51"/><path d="M1378,3353L1436,3577L1392,2820Z" fill="#d2d2d2" stroke="#d2d2d2" stroke-width="1.51"/><path d="M1186,3742L1436,3577L1143,3479Z" fill="#d2d2d2" stroke="#d2d2d2" stroke-width="1.51"/><path d="M-132,3489L-253,3593L10,3716Z" fill="#d2d2d2" stroke="#d2d2d2" stroke-width="1.51"/><path d="M-199,3371L-253,3593L-132,3489Z" fill="#d2d2d2" stroke="#d2d2d2" stroke-width="1.51"/><path d="M-358,2466L-253,3593L-275,2674Z" fill="#dcdcdc" stroke="#dcdcdc" stroke-width="1.51"/><path d="M993,3898L879,3497L770,3576Z" fill="#d2d2d2" stroke="#d2d2d2" stroke-width="1.51"/><path d="M-124,717L-143,972L83,829Z" fill="#d9d9d9" stroke="#d9d9d9" stroke-width="1.51"/><path d="M-124,717L83,829L91,735Z" fill="#d6d6d6" stroke="#d6d6d6" stroke-width="1.51"/><path d="M-43,3817L125,3805L10,3716Z" fill="#d2d2d2" stroke="#d2d2d2" stroke-width="1.51"/><path d="M10,3716L125,3805L279,3699Z" fill="#d2d2d2" stroke="#d2d2d2" stroke-width="1.51"/><path d="M953,3927L993,3898L770,3576Z" fill="#d2d2d2" stroke="#d2d2d2" stroke-width="1.51"/><path d="M-9,517L-124,717L91,735Z" fill="#d2d2d2" stroke="#d2d2d2" stroke-width="1.51"/><path d="M561,517L306,561L557,633Z" fill="#e8e8e8" stroke="#e8e8e8" stroke-width="1.51"/><path d="M557,633L306,561L437,940Z" fill="#ebebeb" stroke="#ebebeb" stroke-width="1.51"/><path d="M862,666L813,537L557,633Z" fill="#e3e3e3" stroke="#e3e3e3" stroke-width="1.51"/><path d="M1372,614L992,766L1135,882Z" fill="#d6d6d6" stroke="#d6d6d6" stroke-width="1.51"/><path d="M813,537L561,517L557,633Z" fill="#e8e8e8" stroke="#e8e8e8" stroke-width="1.51"/><path d="M125,3805L437,3925L279,3699Z" fill="#dfdfdf" stroke="#dfdfdf" stroke-width="1.51"/><path d="M226,4171L442,4105L437,3925Z" fill="#e8e8e8" stroke="#e8e8e8" stroke-width="1.51"/><path d="M-253,3593L-43,3817L10,3716Z" fill="#d2d2d2" stroke="#d2d2d2" stroke-width="1.51"/><path d="M953,3927L770,3576L744,3961Z" fill="#d8d8d8" stroke="#d8d8d8" stroke-width="1.51"/><path d="M1186,3742L1377,3862L1436,3577Z" fill="#d2d2d2" stroke="#d2d2d2" stroke-width="1.51"/><path d="M993,3898L1377,3862L1186,3742Z" fill="#d2d2d2" stroke="#d2d2d2" stroke-width="1.51"/><path d="M744,3961L770,3576L602,3759Z" fill="#e8e8e8" stroke="#e8e8e8" stroke-width="1.51"/><path d="M437,3925L744,3961L602,3759Z" fill="#e8e8e8" stroke="#e8e8e8" stroke-width="1.51"/><path d="M306,561L-9,517L91,735Z" fill="#d2d2d2" stroke="#d2d2d2" stroke-width="1.51"/><path d="M561,517L344,473L306,561Z" fill="#e8e8e8" stroke="#e8e8e8" stroke-width="1.51"/><path d="M209,352L344,473L387,218Z" fill="#e3e3e3" stroke="#e3e3e3" stroke-width="1.51"/><path d="M1286,989L1372,614L1135,882Z" fill="#d8d8d8" stroke="#d8d8d8" stroke-width="1.51"/><path d="M1418,1444L1372,614L1328,1204Z" fill="#e1e1e1" stroke="#e1e1e1" stroke-width="1.51"/><path d="M209,352L-9,517L306,561Z" fill="#d2d2d2" stroke="#d2d2d2" stroke-width="1.51"/><path d="M-124,717L-229,559L-239,788Z" fill="#d3d3d3" stroke="#d3d3d3" stroke-width="1.51"/><path d="M1102,4154L993,3898L953,3927Z" fill="#d2d2d2" stroke="#d2d2d2" stroke-width="1.51"/><path d="M1102,4154L1377,3862L993,3898Z" fill="#d2d2d2" stroke="#d2d2d2" stroke-width="1.51"/><path d="M-9,517L-229,559L-124,717Z" fill="#d2d2d2" stroke="#d2d2d2" stroke-width="1.51"/><path d="M-239,788L-313,455L-368,1157Z" fill="#d7d7d7" stroke="#d7d7d7" stroke-width="1.51"/><path d="M744,3961L847,4088L953,3927Z" fill="#d5d5d5" stroke="#d5d5d5" stroke-width="1.51"/><path d="M437,3925L682,4101L744,3961Z" fill="#e8e8e8" stroke="#e8e8e8" stroke-width="1.51"/><path d="M442,4105L682,4101L437,3925Z" fill="#e8e8e8" stroke="#e8e8e8" stroke-width="1.51"/><path d="M682,4101L847,4088L744,3961Z" fill="#e1e1e1" stroke="#e1e1e1" stroke-width="1.51"/><path d="M226,4171L437,3925L125,3805Z" fill="#dddddd" stroke="#dddddd" stroke-width="1.51"/><path d="M-9,517L-313,455L-229,559Z" fill="#d2d2d2" stroke="#d2d2d2" stroke-width="1.51"/><path d="M344,473L209,352L306,561Z" fill="#e0e0e0" stroke="#e0e0e0" stroke-width="1.51"/><path d="M387,218L344,473L561,517Z" fill="#e8e8e8" stroke="#e8e8e8" stroke-width="1.51"/><path d="M387,218L561,517L717,197Z" fill="#e8e8e8" stroke="#e8e8e8" stroke-width="1.51"/><path d="M1372,614L1028,360L992,766Z" fill="#d2d2d2" stroke="#d2d2d2" stroke-width="1.51"/><path d="M-44,4120L226,4171L125,3805Z" fill="#d2d2d2" stroke="#d2d2d2" stroke-width="1.51"/><path d="M-253,3593L-302,3938L-43,3817Z" fill="#d2d2d2" stroke="#d2d2d2" stroke-width="1.51"/><path d="M-358,2466L-302,3938L-253,3593Z" fill="#d2d2d2" stroke="#d2d2d2" stroke-width="1.51"/><path d="M-113,141L-313,455L-9,517Z" fill="#d2d2d2" stroke="#d2d2d2" stroke-width="1.51"/><path d="M-229,559L-313,455L-239,788Z" fill="#d2d2d2" stroke="#d2d2d2" stroke-width="1.51"/><path d="M-368,1157L-363,-41L-396,1369Z" fill="#d8d8d8" stroke="#d8d8d8" stroke-width="1.51"/><path d="M-44,4120L125,3805L-43,3817Z" fill="#d2d2d2" stroke="#d2d2d2" stroke-width="1.51"/><path d="M442,4105L226,4171L682,4101Z" fill="#e8e8e8" stroke="#e8e8e8" stroke-width="1.51"/><path d="M682,4101L1102,4154L847,4088Z" fill="#d2d2d2" stroke="#d2d2d2" stroke-width="1.51"/><path d="M-302,3938L-44,4120L-43,3817Z" fill="#d2d2d2" stroke="#d2d2d2" stroke-width="1.51"/><path d="M226,4171L1102,4154L682,4101Z" fill="#e8e8e8" stroke="#e8e8e8" stroke-width="1.51"/><path d="M847,4088L1102,4154L953,3927Z" fill="#d2d2d2" stroke="#d2d2d2" stroke-width="1.51"/><path d="M209,352L173,247L-9,517Z" fill="#d2d2d2" stroke="#d2d2d2" stroke-width="1.51"/><path d="M717,197L561,517L813,537Z" fill="#e8e8e8" stroke="#e8e8e8" stroke-width="1.51"/><path d="M387,218L173,247L209,352Z" fill="#dcdcdc" stroke="#dcdcdc" stroke-width="1.51"/><path d="M1028,360L982,243L813,537Z" fill="#d2d2d2" stroke="#d2d2d2" stroke-width="1.51"/><path d="M1103,110L982,243L1028,360Z" fill="#d2d2d2" stroke="#d2d2d2" stroke-width="1.51"/><path d="M982,243L717,197L813,537Z" fill="#d7d7d7" stroke="#d7d7d7" stroke-width="1.51"/><path d="M1372,614L1400,311L1028,360Z" fill="#d2d2d2" stroke="#d2d2d2" stroke-width="1.51"/><path d="M982,243L905,58L717,197Z" fill="#d3d3d3" stroke="#d3d3d3" stroke-width="1.51"/><path d="M1418,1444L1400,311L1372,614Z" fill="#d7d7d7" stroke="#d7d7d7" stroke-width="1.51"/><path d="M1437,-46L1400,311L1418,1444Z" fill="#d2d2d2" stroke="#d2d2d2" stroke-width="1.51"/><path d="M226,4171L1264,4181L1102,4154Z" fill="#d3d3d3" stroke="#d3d3d3" stroke-width="1.51"/><path d="M1102,4154L1264,4181L1377,3862Z" fill="#d2d2d2" stroke="#d2d2d2" stroke-width="1.51"/><path d="M1400,311L1103,110L1028,360Z" fill="#d2d2d2" stroke="#d2d2d2" stroke-width="1.51"/><path d="M717,197L621,-30L387,218Z" fill="#e8e8e8" stroke="#e8e8e8" stroke-width="1.51"/><path d="M213,-83L-113,141L173,247Z" fill="#d2d2d2" stroke="#d2d2d2" stroke-width="1.51"/><path d="M1103,110L905,58L982,243Z" fill="#d2d2d2" stroke="#d2d2d2" stroke-width="1.51"/><path d="M213,-83L173,247L387,218Z" fill="#dcdcdc" stroke="#dcdcdc" stroke-width="1.51"/><path d="M173,247L-113,141L-9,517Z" fill="#d2d2d2" stroke="#d2d2d2" stroke-width="1.51"/><path d="M1400,311L1383,155L1103,110Z" fill="#d2d2d2" stroke="#d2d2d2" stroke-width="1.51"/><path d="M814,-291L621,-30L905,58Z" fill="#dedede" stroke="#dedede" stroke-width="1.51"/><path d="M226,4171L-353,4222L1264,4181Z" fill="#e8e8e8" stroke="#e8e8e8" stroke-width="1.51"/><path d="M-44,4120L-353,4222L226,4171Z" fill="#d2d2d2" stroke="#d2d2d2" stroke-width="1.51"/><path d="M-302,3938L-353,4222L-44,4120Z" fill="#d2d2d2" stroke="#d2d2d2" stroke-width="1.51"/><path d="M-358,2466L-353,4222L-302,3938Z" fill="#d2d2d2" stroke="#d2d2d2" stroke-width="1.51"/><path d="M-396,1369L-353,4222L-358,2466Z" fill="#e4e4e4" stroke="#e4e4e4" stroke-width="1.51"/><path d="M-113,141L-280,176L-313,455Z" fill="#d2d2d2" stroke="#d2d2d2" stroke-width="1.51"/><path d="M905,58L621,-30L717,197Z" fill="#e2e2e2" stroke="#e2e2e2" stroke-width="1.51"/><path d="M-113,141L-363,-41L-280,176Z" fill="#d2d2d2" stroke="#d2d2d2" stroke-width="1.51"/><path d="M482,-91L621,-30L583,-171Z" fill="#e8e8e8" stroke="#e8e8e8" stroke-width="1.51"/><path d="M621,-30L482,-91L387,218Z" fill="#e8e8e8" stroke="#e8e8e8" stroke-width="1.51"/><path d="M583,-171L621,-30L814,-291Z" fill="#e8e8e8" stroke="#e8e8e8" stroke-width="1.51"/><path d="M482,-91L213,-83L387,218Z" fill="#e8e8e8" stroke="#e8e8e8" stroke-width="1.51"/><path d="M482,-91L257,-345L213,-83Z" fill="#e4e4e4" stroke="#e4e4e4" stroke-width="1.51"/><path d="M1072,-144L905,58L1103,110Z" fill="#d2d2d2" stroke="#d2d2d2" stroke-width="1.51"/><path d="M213,-83L-49,-102L-113,141Z" fill="#d2d2d2" stroke="#d2d2d2" stroke-width="1.51"/><path d="M257,-345L-49,-102L213,-83Z" fill="#d2d2d2" stroke="#d2d2d2" stroke-width="1.51"/><path d="M1142,-209L1072,-144L1103,110Z" fill="#d2d2d2" stroke="#d2d2d2" stroke-width="1.51"/><path d="M1383,155L1437,-46L1103,110Z" fill="#d2d2d2" stroke="#d2d2d2" stroke-width="1.51"/><path d="M1400,311L1437,-46L1383,155Z" fill="#d2d2d2" stroke="#d2d2d2" stroke-width="1.51"/><path d="M1446,2417L1437,-46L1418,1444Z" fill="#e8e8e8" stroke="#e8e8e8" stroke-width="1.51"/><path d="M-49,-102L-363,-41L-113,141Z" fill="#d2d2d2" stroke="#d2d2d2" stroke-width="1.51"/><path d="M-280,176L-363,-41L-313,455Z" fill="#d2d2d2" stroke="#d2d2d2" stroke-width="1.51"/><path d="M-313,455L-363,-41L-368,1157Z" fill="#d2d2d2" stroke="#d2d2d2" stroke-width="1.51"/><path d="M1072,-144L814,-291L905,58Z" fill="#d2d2d2" stroke="#d2d2d2" stroke-width="1.51"/><path d="M1437,-46L1142,-209L1103,110Z" fill="#d2d2d2" stroke="#d2d2d2" stroke-width="1.51"/><path d="M1142,-209L814,-291L1072,-144Z" fill="#d2d2d2" stroke="#d2d2d2" stroke-width="1.51"/><path d="M583,-171L484,-335L482,-91Z" fill="#e8e8e8" stroke="#e8e8e8" stroke-width="1.51"/><path d="M-49,-102L-150,-325L-363,-41Z" fill="#d2d2d2" stroke="#d2d2d2" stroke-width="1.51"/><path d="M814,-291L484,-335L583,-171Z" fill="#e8e8e8" stroke="#e8e8e8" stroke-width="1.51"/><path d="M484,-335L257,-345L482,-91Z" fill="#e8e8e8" stroke="#e8e8e8" stroke-width="1.51"/><path d="M484,-335L1303,-321L257,-345Z" fill="#e8e8e8" stroke="#e8e8e8" stroke-width="1.51"/><path d="M814,-291L1303,-321L484,-335Z" fill="#d3d3d3" stroke="#d3d3d3" stroke-width="1.51"/><path d="M1142,-209L1303,-321L814,-291Z" fill="#d2d2d2" stroke="#d2d2d2" stroke-width="1.51"/><path d="M1437,-46L1303,-321L1142,-209Z" fill="#d2d2d2" stroke="#d2d2d2" stroke-width="1.51"/><path d="M257,-345L-150,-325L-49,-102Z" fill="#d2d2d2" stroke="#d2d2d2" stroke-width="1.51"/><path d="M257,-345L-177,-364L-150,-325Z" fill="#d2d2d2" stroke="#d2d2d2" stroke-width="1.51"/><path d="M-150,-325L-177,-364L-363,-41Z" fill="#d2d2d2" stroke="#d2d2d2" stroke-width="1.51"/><path d="M1303,-321L-177,-364L257,-345Z" fill="#e8e8e8" stroke="#e8e8e8" stroke-width="1.51"/></svg>